<?xml version="1.0" standalone="no"?>
<!DOCTYPE svg PUBLIC "-//W3C//DTD SVG 20010904//EN"
 "http://www.w3.org/TR/2001/REC-SVG-20010904/DTD/svg10.dtd">
<svg version="1.0" xmlns="http://www.w3.org/2000/svg"
 width="1024.000000pt" height="1024.000000pt" viewBox="0 0 1024.000000 1024.000000"
 preserveAspectRatio="xMidYMid meet">

<g transform="translate(0.000000,1024.000000) scale(0.100000,-0.100000)"
fill="#000000" stroke="none">
<path d="M6680 7751 c-368 -123 -711 -246 -880 -316 -167 -68 -310 -137 -305
-145 3 -4 -3 -7 -12 -6 -9 0 -18 -4 -20 -11 -6 -17 36 -26 131 -27 l81 -1
-102 -41 c-208 -85 -336 -167 -474 -303 -176 -175 -269 -386 -269 -610 0 -174
46 -303 158 -442 132 -164 269 -238 927 -503 273 -110 543 -240 657 -316 148
-97 327 -290 394 -422 14 -28 21 -47 16 -44 -5 3 -15 19 -22 36 -7 16 -17 27
-23 23 -6 -4 -7 -1 -2 8 6 11 5 12 -6 2 -18 -18 -29 -16 -29 3 0 11 -5 14 -16
10 -9 -3 -20 -6 -25 -6 -6 0 -7 -6 -2 -12 6 -11 13 -92 7 -85 -1 1 -25 36 -52
77 -53 79 -147 181 -223 242 -51 42 -238 158 -253 158 -6 0 12 -20 39 -45 28
-24 45 -44 38 -45 -6 0 -15 4 -18 10 -3 6 -17 10 -30 10 -17 0 -23 4 -19 14 3
7 -1 16 -10 19 -11 5 -13 0 -6 -23 6 -21 4 -32 -6 -41 -8 -6 -14 -24 -14 -39
0 -15 -6 -30 -14 -33 -8 -3 -18 -21 -22 -39 l-8 -33 -7 30 -7 30 -1 -27 c0
-16 -6 -28 -12 -28 -5 0 -7 -4 -4 -10 3 -5 -1 -10 -10 -10 -9 0 -19 -10 -22
-21 -6 -21 -7 -21 -21 -3 -13 18 -14 18 -8 -3 5 -16 2 -23 -13 -28 -12 -3 -25
-3 -31 0 -6 4 -9 3 -8 -2 6 -16 -30 -54 -48 -51 -13 2 -20 -4 -22 -19 -2 -12
-15 -26 -33 -33 -16 -7 -29 -16 -29 -21 0 -8 -40 -24 -52 -21 -5 1 -8 -4 -8
-12 0 -9 7 -12 19 -9 16 4 19 1 14 -18 l-6 -22 -24 27 c-13 15 -20 33 -17 39
4 7 4 9 -1 5 -4 -4 -42 25 -84 65 -132 126 -254 193 -601 331 -427 170 -518
212 -658 302 -91 59 -241 198 -306 284 -179 235 -265 540 -236 839 31 313 104
509 284 759 94 130 310 320 508 446 135 85 136 84 -52 39 -354 -85 -701 -252
-1007 -485 -105 -80 -151 -138 -243 -310 -67 -127 -140 -342 -140 -417 0 -21
-2 -23 -10 -11 -12 19 -13 63 -1 55 6 -3 10 3 10 12 0 31 27 199 37 232 4 11
0 11 -14 -2 -25 -23 -47 -21 -64 4 -13 20 -14 20 -15 3 -2 -31 -9 -53 -18 -61
-4 -4 -5 -2 -1 5 17 29 -16 8 -71 -47 -40 -39 -129 -170 -196 -286 -160 -279
-267 -665 -286 -1032 -10 -202 2 -467 29 -606 114 -589 454 -1109 929 -1418
184 -121 432 -232 624 -280 l88 -22 -43 -19 c-55 -25 -369 -143 -703 -264
-143 -53 -261 -97 -264 -99 -10 -10 221 -110 363 -157 421 -141 876 -152 1344
-34 106 27 331 105 392 136 22 11 80 23 150 29 276 28 541 84 735 156 185 69
465 228 619 352 444 358 774 893 916 1487 46 191 60 300 66 511 16 512 -115
970 -397 1389 -221 329 -579 629 -909 764 -122 50 -221 83 -231 76 -5 -3 -9
-1 -9 5 0 5 -36 18 -80 28 -44 10 -80 20 -80 23 1 17 477 204 824 325 l178 62
-48 27 c-59 33 -208 96 -226 96 -7 -1 -159 -50 -338 -109z m-2626 -561 c-99
-169 -205 -445 -239 -620 -22 -117 -30 -308 -16 -404 14 -101 71 -270 121
-363 86 -160 220 -307 375 -412 44 -30 87 -63 96 -74 10 -12 21 -17 29 -12 8
5 11 4 7 -2 -4 -6 24 -32 60 -59 180 -132 225 -168 217 -176 -2 -3 19 -14 46
-26 64 -28 65 -38 3 -13 -493 195 -692 332 -896 617 -137 192 -209 486 -186
765 19 231 81 404 225 617 46 70 184 235 191 229 2 -3 -13 -33 -33 -67z m2316
-60 c0 -5 7 -10 16 -10 11 0 15 -6 11 -20 -6 -24 12 -38 25 -19 7 10 8 8 3 -7
-3 -14 1 -28 10 -38 9 -9 14 -20 10 -25 -3 -5 4 -12 15 -16 14 -4 20 -15 20
-36 0 -33 -25 -100 -42 -110 -10 -6 52 -32 79 -33 7 -1 26 -13 42 -28 16 -16
37 -28 47 -28 9 0 14 -3 11 -7 -4 -3 1 -12 11 -20 16 -14 16 -14 -3 -8 -254
86 -332 103 -520 112 -220 10 -408 -30 -556 -117 -81 -48 -178 -151 -219 -233
-16 -33 -30 -53 -30 -44 0 8 -3 23 -7 33 -5 13 -3 15 7 9 9 -5 11 -4 6 3 -15
25 72 149 151 214 54 45 130 89 203 118 64 26 227 59 299 61 28 1 48 6 45 11
-3 4 8 8 24 8 24 0 32 7 48 40 19 40 34 51 34 28 1 -7 9 -3 20 10 10 13 22 22
26 22 3 -1 15 12 25 29 11 18 30 33 46 36 43 9 58 21 55 41 -3 14 -1 16 10 6
11 -8 17 -7 26 9 13 20 52 27 52 9z m335 -431 c5 -5 -5 -4 -23 2 -17 6 -32 13
-32 16 0 7 43 -8 55 -18z m-465 -245 c177 -31 426 -117 580 -202 366 -202 651
-520 786 -879 72 -190 101 -353 109 -610 6 -206 5 -207 -45 -45 -37 117 -127
305 -196 407 -254 378 -623 609 -1254 785 -414 115 -439 126 -490 207 -92 145
1 319 188 353 59 11 210 3 322 -16z m-2879 -215 c-8 -143 -8 -144 -10 -43 -1
93 7 199 15 191 2 -2 0 -68 -5 -148z m-24 -32 c-2 -23 -3 -1 -3 48 0 50 1 68
3 42 2 -26 2 -67 0 -90z m30 -209 c-3 -7 -5 -2 -5 12 0 14 2 19 5 13 2 -7 2
-19 0 -25z m10 -60 c-3 -7 -5 -2 -5 12 0 14 2 19 5 13 2 -7 2 -19 0 -25z
m-262 -394 c134 -401 423 -717 855 -934 151 -76 453 -186 785 -285 204 -62
289 -139 288 -260 0 -86 -44 -149 -133 -196 -42 -23 -55 -24 -210 -23 -151 1
-175 4 -282 32 -525 140 -969 458 -1191 855 -86 154 -162 377 -198 587 -15 86
-19 546 -4 569 6 10 16 -27 32 -115 13 -71 39 -175 58 -230z m3340 -654 c10
-11 16 -20 13 -20 -3 0 -13 9 -23 20 -10 11 -16 20 -13 20 3 0 13 -9 23 -20z
m50 -60 c10 -11 16 -20 13 -20 -3 0 -13 9 -23 20 -10 11 -16 20 -13 20 3 0 13
-9 23 -20z m385 -210 c0 -11 -4 -20 -9 -20 -5 0 -7 9 -4 20 3 11 7 20 9 20 2
0 4 -9 4 -20z m-880 -194 c0 -6 -11 5 -25 24 -14 19 -25 36 -25 39 0 10 49
-53 50 -63z"/>
<path d="M6325 7110 c-4 -6 3 -10 14 -10 25 0 27 6 6 13 -8 4 -17 2 -20 -3z"/>
<path d="M6400 7013 c-13 -15 -12 -16 4 -10 10 4 20 7 22 7 2 0 4 5 4 10 0 15
-13 12 -30 -7z"/>
<path d="M3399 6813 c-12 -16 -12 -17 2 -6 9 7 20 9 24 5 5 -4 5 -1 1 6 -9 16
-11 15 -27 -5z"/>
<path d="M6846 4587 c3 -10 9 -15 12 -12 3 3 0 11 -7 18 -10 9 -11 8 -5 -6z"/>
</g>
</svg>
